<svg width="68" height="76" viewBox="0 0 68 76" fill="none" xmlns="http://www.w3.org/2000/svg">
<g filter="url(#filter0_d)">
<path opacity="0.1" d="M32.9304 7.25561C17.9892 7.64504 5.57678 16.304 4.14279 27.3567C3.84983 29.5672 4.01944 31.7091 4.54369 33.7593C4.54369 33.7593 4.58995 33.9998 4.74414 34.458C5.20672 35.9927 5.90058 37.4817 6.76405 38.879C9.77081 44.1706 16.7248 53.0245 32.3291 62.6566C33.285 63.2524 34.6882 63.2524 35.6596 62.6566C51.2638 53.0359 58.2178 44.1821 61.24 38.8676C62.1188 37.4703 62.7974 35.9927 63.2598 34.4465C63.3984 33.9998 63.4605 33.7478 63.4605 33.7478C63.8148 32.3734 64 30.9646 64 29.5215C64 16.9454 49.984 6.80892 32.9304 7.25561ZM33.9943 40.6085C25.9455 40.6085 19.4232 35.7637 19.4232 29.7849C19.4232 23.8061 25.9455 18.9612 33.9943 18.9612C42.0431 18.9612 48.5654 23.8061 48.5654 29.7849C48.5654 35.7637 42.0431 40.6085 33.9943 40.6085Z" fill="url(#paint0_linear)"/>
<path d="M33.1029 0.0160609C20.5656 0.455965 10.1502 10.2374 8.94697 22.7229C8.70113 25.2199 8.84347 27.6394 9.28333 29.9554C9.28333 29.9554 9.32218 30.2271 9.45154 30.7447C9.83973 32.4784 10.4219 34.1604 11.1465 35.7388C13.6694 41.7164 19.5046 51.7177 32.5982 62.5987C33.4004 63.2716 34.5778 63.2716 35.393 62.5987C48.4866 51.7309 54.3216 41.7293 56.8576 35.7259C57.5952 34.1474 58.1642 32.4784 58.5526 30.7317C58.669 30.2271 58.7207 29.9425 58.7207 29.9425C59.0182 28.3899 59.1739 26.7985 59.1739 25.1682C59.1739 10.9619 47.4127 -0.488535 33.1029 0.0160609ZM33.9956 37.6925C27.2418 37.6925 21.7689 32.2196 21.7689 25.4658C21.7689 18.712 27.2418 13.239 33.9956 13.239C40.7495 13.239 46.2223 18.712 46.2223 25.4658C46.2223 32.2196 40.7495 37.6925 33.9956 37.6925Z" fill="url(#paint1_linear)"/>
<path opacity="0.5" fill-rule="evenodd" clip-rule="evenodd" d="M17.4482 25.3449C17.4482 34.4877 24.8571 41.8966 34 41.8966C43.1429 41.8966 50.5517 34.4877 50.5517 25.3449C50.5517 16.202 43.1429 8.79315 34 8.79315C24.8571 8.79315 17.4482 16.202 17.4482 25.3449ZM21.7685 25.4658C21.7685 32.2196 27.2414 37.6926 33.9953 37.6926C40.7491 37.6926 46.222 32.2196 46.222 25.4658C46.222 18.712 40.7491 13.239 33.9953 13.239C27.2414 13.239 21.7685 18.712 21.7685 25.4658Z" fill="url(#paint2_linear)"/>
</g>
<defs>
<filter id="filter0_d" x="0" y="0" width="68" height="75.1035" filterUnits="userSpaceOnUse" color-interpolation-filters="sRGB">
<feFlood flood-opacity="0" result="BackgroundImageFix"/>
<feColorMatrix in="SourceAlpha" type="matrix" values="0 0 0 0 0 0 0 0 0 0 0 0 0 0 0 0 0 0 127 0"/>
<feOffset dy="8"/>
<feGaussianBlur stdDeviation="2"/>
<feColorMatrix type="matrix" values="0 0 0 0 0 0 0 0 0 0 0 0 0 0 0 0 0 0 0.25 0"/>
<feBlend mode="normal" in2="BackgroundImageFix" result="effect1_dropShadow"/>
<feBlend mode="normal" in="SourceGraphic" in2="effect1_dropShadow" result="shape"/>
</filter>
<linearGradient id="paint0_linear" x1="34" y1="7.24139" x2="34" y2="63.1035" gradientUnits="userSpaceOnUse">
<stop offset="0.1" stop-color="#19191B" stop-opacity="0"/>
<stop offset="1" stop-color="#19191B"/>
</linearGradient>
<linearGradient id="paint1_linear" x1="11.6801" y1="1.27622e-06" x2="65.9911" y2="47.8489" gradientUnits="userSpaceOnUse">
<stop offset="0.259336" stop-color="#FFDB6E"/>
<stop offset="1" stop-color="#FFBC5E"/>
</linearGradient>
<linearGradient id="paint2_linear" x1="19.3241" y1="8.79315" x2="47.9034" y2="40.3518" gradientUnits="userSpaceOnUse">
<stop offset="0.259336" stop-color="#CAA432"/>
<stop offset="1" stop-color="#FFBC5E"/>
</linearGradient>
</defs>
</svg>
